ffmpeg version N-91141-gc24d247e2c Copyright (c) 2000-2018 the FFmpeg developers
  built with gcc 7.3.0 (GCC)
  configuration: --enable-gpl --enable-version3 --enable-sdl2 --enable-bzlib --enable-fontconfig --enable-gnutls --enable-iconv --enable-libass --enable-libbluray --enable-libfreetype --enable-libmp3lame --enable-libopencore-amrnb --enable-libopencore-amrwb --enable-libopenjpeg --enable-libopus --enable-libshine --enable-libsnappy --enable-libsoxr --enable-libtheora --enable-libtwolame --enable-libvpx --enable-libwavpack --enable-libwebp --enable-libx264 --enable-libx265 --enable-libxml2 --enable-libzimg --enable-lzma --enable-zlib --enable-gmp --enable-libvidstab --enable-libvorbis --enable-libvo-amrwbenc --enable-libmysofa --enable-libspeex --enable-libxvid --enable-libaom --enable-libmfx --enable-amf --enable-ffnvcodec --enable-cuvid --enable-d3d11va --enable-nvenc --enable-nvdec --enable-dxva2 --enable-avisynth
  libavutil      56. 18.102 / 56. 18.102
  libavcodec     58. 19.102 / 58. 19.102
  libavformat    58. 16.100 / 58. 16.100
  libavdevice    58.  4.100 / 58.  4.100
  libavfilter     7. 24.100 /  7. 24.100
  libswscale      5.  2.100 /  5.  2.100
  libswresample   3.  2.100 /  3.  2.100
  libpostproc    55.  2.100 / 55.  2.100
Input #0, mov,mp4,m4a,3gp,3g2,mj2, from 'C:\Users\Adam\Documents\audio-replacer\ExampleVideo.mp4':
  Metadata:
    major_brand     : mp42
    minor_version   : 0
    compatible_brands: isommp42
    creation_time   : 2018-04-29T00:39:51.000000Z
  Duration: 00:02:07.43, start: 0.000000, bitrate: 1572 kb/s
    Stream #0:0(und): Video: h264 (Main) (avc1 / 0x31637661), yuv420p(tv, bt709), 1280x720 [SAR 1:1 DAR 16:9], 1442 kb/s, 29.97 fps, 29.97 tbr, 90k tbn, 59.94 tbc (default)
    Metadata:
      creation_time   : 2018-04-29T00:39:51.000000Z
      handler_name    : ISO Media file produced by Google Inc. Created on: 04/28/2018.
    Stream #0:1(eng): Audio: aac (LC) (mp4a / 0x6134706D), 44100 Hz, stereo, fltp, 125 kb/s (default)
    Metadata:
      creation_time   : 2018-04-29T00:39:51.000000Z
      handler_name    : ISO Media file produced by Google Inc. Created on: 04/28/2018.
Input #1, mp3, from 'C:\Users\Adam\Documents\audio-replacer\ExampleAudio.mp3':
  Metadata:
    date            : 2018-05-15T04:34:25
  Duration: 00:04:16.03, start: 0.025056, bitrate: 323 kb/s
    Stream #1:0: Audio: mp3, 44100 Hz, stereo, fltp, 320 kb/s
    Metadata:
      encoder         : LAME3.99r
    Side data:
      replaygain: track gain - -3.600000, track peak - unknown, album gain - unknown, album peak - unknown, 
    Stream #1:1: Video: mjpeg, yuvj444p(pc, bt470bg/unknown/unknown), 700x700 [SAR 72:72 DAR 1:1], 90k tbr, 90k tbn, 90k tbc
    Metadata:
      title           : cover
      comment         : Cover (front)
Stream mapping:
  Stream #0:0 -> #0:0 (copy)
  Stream #1:0 -> #0:1 (mp3 (mp3float) -> aac (native))
Press [q] to stop, [?] for help
Output #0, mp4, to 'C:\Users\Adam\Documents\audio-replacer\Replaced\ExampleVideo.mp4':
  Metadata:
    major_brand     : mp42
    minor_version   : 0
    compatible_brands: isommp42
    encoder         : Lavf58.16.100
    Stream #0:0(und): Video: h264 (Main) (avc1 / 0x31637661), yuv420p(tv, bt709), 1280x720 [SAR 1:1 DAR 16:9], q=2-31, 1442 kb/s, 29.97 fps, 29.97 tbr, 90k tbn, 90k tbc (default)
    Metadata:
      creation_time   : 2018-04-29T00:39:51.000000Z
      handler_name    : ISO Media file produced by Google Inc. Created on: 04/28/2018.
    Stream #0:1: Audio: aac (LC) (mp4a / 0x6134706D), 44100 Hz, stereo, fltp, 128 kb/s
    Metadata:
      encoder         : Lavc58.19.102 aac
    Side data:
      replaygain: track gain - -3.600000, track peak - unknown, album gain - unknown, album peak - unknown, 
frame= 1585 fps=0.0 q=-1.0 size=   11264kB time=00:00:52.82 bitrate=1746.8kbits/s speed= 106x    frame= 3117 fps=3113 q=-1.0 size=   21248kB time=00:01:43.93 bitrate=1674.7kbits/s speed= 104x    frame= 3819 fps=3101 q=-1.0 Lsize=   24577kB time=00:02:07.38 bitrate=1580.5kbits/s speed= 103x    
video:22441kB audio:2005kB subtitle:0kB other streams:0kB global headers:0kB muxing overhead: 0.535705%
[aac @ 0000018144082800] Qavg: 162.647
